<?xml version="1.0" encoding="UTF-8"?>
<svg id="Ebene_1" data-name="Ebene 1" xmlns="http://www.w3.org/2000/svg" viewBox="0 0 816.35706 185">
  <defs>
    <style>
      .cls-1 {
        fill: #026e5a;
      }
    </style>
  </defs>
  <path class="cls-1" d="m1.50554,92.5011h-91.81048l23.26606-23.26602L-90.30772.68237l-.01099-.00552v91.82424h-91.82424l.00554.00825,68.55273,23.27152,23.26598-23.26602v91.80775l.01099-.00549,23.26606-68.53897L1.50009,92.50935s.00545-.00825.00545-.00826Zm37.8475,0h61.21529v-10.31205h-50.90598V31.28311h-10.3093v61.21799h-.00002Zm109.37206-.00275l57.28671.00275v-10.31205h-57.26746v-15.1423h57.26746v-10.31205h-57.28671v-15.13955h57.28671v-10.31205h-67.59601v61.21799h.01648l10.29282-.00275Zm96.0607.00275h10.31204V31.28311h-10.3093l-.00272,61.21799h-.00003Zm89.39395-50.90594h31.8186v-10.31205h-73.94379v10.31205h31.81586v50.90594h10.31201l-.00275-50.90594h.00006Zm139.46973,50.90594l24.48669-61.21799h-13.27289l-16.75604,46.91693-12.27222-34.19113h-13.67151l-12.2392,34.19664-16.75879-46.92243h-13.27014l24.48389,61.21799h11.09283l13.5423-33.86123,13.54504,33.85848,11.09003.00275v-.00002Zm70.49634,0h57.284v-10.31205h-57.26752v-15.1423h57.26752v-10.31205h-57.284v-15.13955h57.284v-10.31205h-67.59326v61.21524l.01373.00275s10.29553,0,10.29553,0Zm168.60248-29.96019c.92914-2.10584,1.39929-4.40414,1.39929-6.83163v-6.72441c0-2.42749-.47015-4.74228-1.4021-6.88387-.93469-2.15257-2.21039-4.044-3.79108-5.62475-1.58081-1.58076-3.47491-2.85637-5.62476-3.79108-2.14166-.92921-4.45636-1.40206-6.88391-1.40206h-56.242v61.21799h10.31195v-50.90594h45.92999c2.02069,0,3.7746.72852,5.2179,2.16908,1.4433,1.44604,2.17188,3.20275,2.17188,5.22062v6.72716c0,2.01788-.73132,3.77183-2.17188,5.21513-1.44049,1.44056-3.19446,2.17458-5.2179,2.17458h-30.7876v1.43506l31.07086,27.96431h15.49969l-20.99799-19.09007h5.21509c2.42755,0,4.74231-.47285,6.88391-1.40206,2.14978-.93196,4.03845-2.22131,5.61639-3.82957,1.5863-1.61374,2.86743-3.51066,3.80212-5.6385m68.44006-.64879l33.66882-30.60899h-15.508l-28.63232,25.4516-8.03033.00275v-25.45434h-10.30933v61.21799h10.30933v-25.45434h8.03033l28.63232,25.45434h15.508l-33.66882-30.60899v-.00002Z"/>
</svg>